PathFileType	4	(X/Y/Z)	0_coords_data.trc
DataRate	CameraRate	NumFrames	NumMarkers	Units	OrigDataRate	OrigDataStartFrame	OrigNumFrames
30.0	30.0	9	21	m	30.0	30	59
Frame#	Time	THUMB_TIP	THUMB_IP	THUMB_MCP	THUMB_CMC	INDEX_TIP	INDEX_DIP	INDEX_PIP	INDEX_MCP	MIDDLE_TIP	MIDDLE_DIP	MIDDLE_PIP	MIDDLE_MCP	RING_TIP	RING_DIP	RING_PIP	RING_MCP	PINKY_TIP	PINKY_DIP	PINKY_PIP	PINKY_MCP	WRIST
X1	Y1	Z1	X2	Y2	Z2	X3	Y3	Z3	X4	Y4	Z4	X5	Y5	Z5	X6	Y6	Z6	X7	Y7	Z7	X8	Y8	Z8	X9	Y9	Z9	X10	Y10	Z10	X11	Y11	Z11	X12	Y12	Z12	X13	Y13	Z13	X14	Y14	Z14	X15	Y15	Z15	X16	Y16	Z16	X17	Y17	Z17	X18	Y18	Z18	X19	Y19	Z19	X20	Y20	Z20	X21	Y21	Z21
28	0.9666666666666625	0.5425525397609424	-0.02836038338763147	-0.12896972073623592	0.5247918515020051	-0.020988939492242453	-0.11639117680357136	0.4943847957179056	-0.01512339793380002	-0.11325647095312119	0.4709875249927761	-0.03008834480669975	-0.07834933575548175	0.5729135418098867	0.05575407068867855	-0.15087848399361575	0.5583751654537328	0.04807266055196635	-0.14328693927343938	0.5388857133760377	0.03799956263855886	-0.13101079211164068	0.5070111530797221	0.02330024064584013	-0.10689485479062999	0.5142805237749462	-0.00818313004675697	-0.11535658385508796	0.530219197685854	-0.006109355257554405	-0.12370272859894516	0.548553000229629	0.015501301737888884	-0.11690120387935693	0.5205566886273995	0.02464545777860594	-0.0833044946956602	0.5301844859256252	-0.022875959725054407	-0.10449927629853134	0.5464422582677986	-0.01847941995172553	-0.11093008312906216	0.5611508390128795	0.00024747204638198017	-0.1036402856314183	0.5342245729469749	0.004580973460069027	-0.07379203953142632	0.5953324052765642	0.02229311615824303	-0.07877662406160113	0.5819679661318702	0.011898589589120045	-0.07625757984770493	0.5645418885223097	0.0009280646493172728	-0.07215984624353489	0.5347308542185059	-0.01829084249812052	-0.06561620102121501	0.4622830810018608	-0.023011742144276925	-0.051989820119430985
29	0.9999999999999956	0.5412923244416977	-0.02985956439317594	-0.1305475485424395	0.5239961346856749	-0.022041976995302415	-0.11759659694804847	0.4937933292193222	-0.01554628242163636	-0.11379969110680044	0.47090976426249365	-0.03008510256507191	-0.07837575620815546	0.5740616084109722	0.05350541391664365	-0.15114146816505963	0.5593127071026095	0.04643536324839248	-0.1433643032738839	0.5395336469282708	0.03708746062499768	-0.1309782091291013	0.5073389141252509	0.022823773468895303	-0.10702653898994402	0.5153010613738237	-0.009716115803945047	-0.11746169399370915	0.531608350605999	-0.006673200081445896	-0.12472894806962748	0.5493651712623335	0.015104711528524217	-0.11699412835051948	0.5209587628723754	0.02391583587680801	-0.08365364288461791	0.5313984569164975	-0.02419998304449955	-0.10629072362876596	0.5477631431792882	-0.018681237216720104	-0.11146184420450184	0.5617950749025415	0.00024051482703546512	-0.10338396263142907	0.5343997859812816	0.004039277556757148	-0.07389178772614308	0.596931948542519	0.019112308502470032	-0.08007047374232557	0.5831274035505616	0.009499272413328597	-0.07690439182394665	0.5652486304355704	-0.00040730453631010466	-0.0721063480513704	0.5348368015598535	-0.01849257139040361	-0.06511154725003654	0.4622830810018609	-0.023011742144276925	-0.051989820119430985
30	1.0333333333333288	0.5393388932376183	-0.03158261180457311	-0.1333836794808485	0.522807861851045	-0.02354195821331795	-0.11959698694342086	0.49293128209335757	-0.016410214470588214	-0.11456228604162144	0.4707429317409273	-0.030191636427411628	-0.07840098742713869	0.5756784465918551	0.04889482059730477	-0.15227756746731413	0.560658520934326	0.04282950694888643	-0.1441773326812965	0.5405165948926334	0.03475829593711355	-0.13148212881785176	0.5078563663569406	0.021883833242015704	-0.10737416796860394	0.5177662701417407	-0.012826918477604643	-0.12042742806726725	0.5343136595097362	-0.008313456520273599	-0.12624228543986693	0.5508246973844431	0.01393091476942776	-0.11718783215841966	0.5217453003229846	0.022427411668132002	-0.08434965121013388	0.534040129606921	-0.026781150170062773	-0.1085898625356384	0.5502556846663461	-0.019703543703293414	-0.11204865724135638	0.5630221518689379	-0.00037207018582041673	-0.10291129297104357	0.5347763245608156	0.002789206352975415	-0.07415541697456257	0.5990466083246571	0.014031301806325391	-0.08133985841821151	0.5846912597427623	0.005553088817956686	-0.07746121540600337	0.5662579160451794	-0.0028281074330753775	-0.07191329610878383	0.5349889231261142	-0.0191937519720089	-0.06447695213793775	0.4622830810018608	-0.023011742144276925	-0.051989820119430985
31	1.0666666666666622	0.5366668424372526	-0.0330734188984958	-0.13723762119470911	0.5211173018678132	-0.025168385452862485	-0.12228027402675246	0.4917114055579074	-0.017528377514334226	-0.11551687688402223	0.4704796323083471	-0.030351015808131487	-0.07844017595384645	0.577546584434105	0.04254224026099984	-0.15384873307878705	0.5622722921968868	0.03771733002982325	-0.1453979202236148	0.5417743531313406	0.031256291966554106	-0.1323557074431797	0.508607950473381	0.02034958399708242	-0.1079698601132475	0.5219454857049389	-0.017428800706339898	-0.12420815813136588	0.5383883189421182	-0.010950819230541309	-0.1281665657826223	0.5528710017434942	0.011948802436374861	-0.11743023603792652	0.5228518424261609	0.020166998192422292	-0.08537623077499806	0.5384078703995496	-0.030520485419236132	-0.11115690797712408	0.5539510068843796	-0.02148438159449151	-0.11248345834645979	0.5647837361632829	-0.0016114209367870114	-0.10209609149690047	0.5353138854198575	0.0008804616696305168	-0.07452728208778636	0.6014104428657857	0.007112580352434894	-0.08222067506207775	0.5864587236076546	0.0001195681154363415	-0.07768814033201554	0.5674659640792538	-0.006340217399773196	-0.07149473451664823	0.5351596914491656	-0.02039483529155217	-0.06377101030701254	0.462283081001861	-0.023011742144276925	-0.051989820119430985
32	1.0999999999999952	0.5332328764136677	-0.03399109963132885	-0.14187182593081016	0.5188469909557013	-0.026626724999242568	-0.12553743626150948	0.4900958356534646	-0.01873370182074552	-0.11659924551111867	0.4700747593269018	-0.030513803594378053	-0.07851675997079699	0.579282198261132	0.034618763352758375	-0.15582379692928544	0.5638182412805124	0.03120852216619774	-0.14703537900846309	0.5430536308386598	0.026600809303871098	-0.1336335221081505	0.5094234942753837	0.018230205591655113	-0.10888310792518296	0.5281305479204238	-0.02349115065664975	-0.12908982105095151	0.5437604398457163	-0.014452998934365024	-0.13051048703866086	0.5552297730329734	0.009136251950058294	-0.11780571671600543	0.5241237917296291	0.017170308614127938	-0.08675704876270168	0.5447598475346601	-0.03521991474845099	-0.11411127700144802	0.5587572014105529	-0.023930435323164745	-0.11283780192157078	0.5668273042445826	-0.0035107426876372916	-0.10108664998149369	0.5359022770417583	-0.0016126426540381544	-0.075110492783651	0.6036316276816593	-0.0014098911942324044	-0.08267360417747738	0.5881334975727549	-0.006607041934052371	-0.07759447164179212	0.568677636056946	-0.010806945180237393	-0.0709129834542433	0.5353101098440266	-0.0220298433952566	-0.06306835464942018	0.4622830810018609	-0.023011742144276925	-0.051989820119430985
33	1.1333333333333284	0.5290635046676003	-0.03436186222495152	-0.1469394378683413	0.5160145693661593	-0.02798147141024565	-0.12913449752723305	0.4881595156177748	-0.020061320762872703	-0.11772453721189768	0.4695730151781208	-0.030722418986556477	-0.07859944314080686	0.5806261101782128	0.025061494223762137	-0.1581987440173399	0.5650955286650587	0.02324147820848388	-0.14906153549572848	0.5442229564434964	0.020723323344265077	-0.135277325038271	0.5103299296750059	0.01550149793989064	-0.11002596131437237	0.537133723130472	-0.030697486551655828	-0.13510525051948336	0.5504243528140592	-0.018575396326894422	-0.13300427665089448	0.5577364010940096	0.005451548713705789	-0.11821747808028932	0.5254847711671504	0.013467107893270991	-0.0883556111075125	0.5534195838133529	-0.04047409295214932	-0.11722234726799907	0.5645448570552766	-0.026949609353351223	-0.1129425530348166	0.5689837385528499	-0.006209808037933584	-0.09989123312273479	0.5365103848275565	-0.004753286600719608	-0.07584792475772584	0.6053372294859111	-0.011387526656836733	-0.08273533361170643	0.5894391010255248	-0.01456211946791841	-0.07724247716529492	0.5697118143718458	-0.01629483723569758	-0.0702679614530175	0.5354038165137778	-0.024178011816330613	-0.06241300807937705	0.4622830810018609	-0.023011742144276925	-0.051989820119430985
34	1.1666666666666616	0.5242621553479304	-0.03396455090186801	-0.15207656106500084	0.5127158870659427	-0.02901941112716222	-0.13283521804095527	0.4860098462860931	-0.021358266326718334	-0.11880260437807538	0.4689884331201577	-0.03092270502679928	-0.07869421365759255	0.5812921891618342	0.014382066982569164	-0.1606900543679704	0.565856226009638	0.014266150566323521	-0.15121811660695844	0.5450762526335272	0.013971974107376939	-0.13707188036903534	0.511197431997606	0.012302305708094652	-0.11132166068539912	0.5493568854114167	-0.0375082096807654	-0.14148313327407114	0.5580367552074076	-0.02284268184554583	-0.13535270477036565	0.5601538248166072	0.0009769827833382427	-0.1186928385272864	0.5267624736094936	0.00913869001876444	-0.09015247902418316	0.5642399639661381	-0.0452293298122417	-0.11992034050529082	0.5709685829062435	-0.030161204967446453	-0.11266242752561695	0.5710255434714949	-0.009608465985355363	-0.09859965202331866	0.5370225690831655	-0.00842140969137728	-0.07675681649077981	0.6062034116268147	-0.022160331972364777	-0.08245611860772556	0.5901110346079703	-0.02324721913232397	-0.0767242708964822	0.5703461341056301	-0.022512687812713872	-0.06968003986157884	0.5353870890425141	-0.02678270743630007	-0.06190086563231606	0.4622830810018609	-0.023011742144276925	-0.051989820119430985
35	1.1999999999999948	0.5190181907111838	-0.03276364557551148	-0.15685082305665138	0.5090920287967693	-0.029634071667695494	-0.13636480155894842	0.48375518260427297	-0.0224992683572921	-0.11975279365082248	0.4683381075717795	-0.031118953173873032	-0.07879055700406118	0.5811429479655716	0.003288962821882402	-0.16303600479831548	0.565954200310768	0.004839199122463778	-0.1532944077993087	0.5454644871446187	0.006732155833305331	-0.13885147865526698	0.5119567611369553	0.00881389357397011	-0.11264967032503048	0.5636037357173225	-0.04200363643318861	-0.1465040230628299	0.5659093336326693	-0.026698194845583667	-0.1371004239613603	0.5622384061721722	-0.00402121848094894	-0.11916474486806788	0.5278027277040652	0.004459985506612862	-0.09199120721905141	0.5758353969776903	-0.048487539562866555	-0.12131252836848438	0.5774012104633518	-0.033211343895524825	-0.11186869048014625	0.5727283800937322	-0.01355407804621278	-0.0973106502732286	0.5373478084939608	-0.012398947346550449	-0.07777602306050296	0.6061391033189338	-0.03305022878137642	-0.08187544982734218	0.590055925199536	-0.03214121930196168	-0.07608709225838928	0.5704793805578103	-0.029094672079140182	-0.06913802981014178	0.5352194008721143	-0.029726382469369206	-0.0615737568412979	0.462283081001861	-0.023011742144276925	-0.051989820119430985
36	1.233333333333328	0.5136190385743149	-0.030993147226758944	-0.16092500372144997	0.5053431061620949	-0.02991726423003349	-0.1395158603830134	0.4815163432048112	-0.023495064514097663	-0.12054586518570132	0.46770194759976	-0.0313328625131033	-0.07886107903303013	0.5802327689144601	-0.007717720475847734	-0.16511386850356008	0.5654171359343028	-0.004621859138699946	-0.15516838400161487	0.5453815314334084	-0.0006794626412693905	-0.14050407716014468	0.512579076779583	0.00508645300138777	-0.1139637440897876	0.5765018235412153	-0.044134591815702784	-0.14885139729087843	0.5731011458087425	-0.030097101984238872	-0.13792508637678608	0.5638611930297721	-0.009418455641578616	-0.11958315605095671	0.5285644499267527	-0.00037584676122059957	-0.09372742028582481	0.5863131691788985	-0.05037854001355846	-0.12100104927635646	0.5831475453099341	-0.036069212096243586	-0.11050238459578898	0.5739904280862138	-0.01794814223244856	-0.09608177399351181	0.5374537610991199	-0.016560102986524772	-0.0788229748891136	0.605303488292346	-0.043371484350939626	-0.08095236624932972	0.5893676884470723	-0.04071133371497593	-0.07529782100807852	0.5701058537427732	-0.03567832593503317	-0.06862979465005498	0.5348844450587176	-0.032884685608837394	-0.061381940137263835	0.462283081001861	-0.023011742144276925	-0.051989820119430985
